<?xml version="1.0" encoding="UTF-8"?>
<svg width="92px" height="26px" viewBox="0 0 92 26" version="1.1" xmlns="http://www.w3.org/2000/svg" xmlns:xlink="http://www.w3.org/1999/xlink">
    <!-- Generator: Sketch 63.1 (92452) - https://sketch.com -->
    <title>Logo</title>
    <desc>Created with Sketch.</desc>
    <g id="Website" stroke="none" stroke-width="1" fill="none" fill-rule="evenodd">
        <g id="Homepage" transform="translate(-242.000000, -2239.000000)" fill="#FFFFFF" fill-rule="nonzero">
            <g id="Footer" transform="translate(0.000000, 2212.000000)">
                <path d="M247.558621,27 C250.628562,27 253.117241,29.4886793 253.117241,32.5586207 L253.117241,44.1883067 C253.117241,44.6638674 252.928326,45.1199502 252.592054,45.4562223 L248.186207,49.862069 L248.186207,52.3724138 C248.186207,52.7190201 247.905227,53 247.558621,53 C247.212014,53 246.931034,52.7190201 246.931034,52.3724138 L246.931034,49.862069 L242.525188,45.4562223 C242.188916,45.1199502 242,44.6638674 242,44.1883067 L242,32.5586207 C242,29.4886793 244.488679,27 247.558621,27 Z M247.558621,28.3448276 C245.231407,28.3448276 243.344828,30.231407 243.344828,32.5586207 L243.344828,34.7096368 L246.931034,38.291798 L246.931034,32.6482759 C246.931034,32.3016696 247.212014,32.0206897 247.558621,32.0206897 C247.905227,32.0206897 248.186207,32.3016696 248.186207,32.6482759 L248.186207,47.8 L251.457301,44.5289058 C251.659064,44.3271425 251.772414,44.0534928 251.772414,43.7681564 L251.772414,32.5586207 C251.772414,30.231407 249.885834,28.3448276 247.558621,28.3448276 Z M243.344828,41.5332685 L243.344828,43.7681564 C243.344828,44.0534928 243.458177,44.3271425 243.65994,44.5289058 L246.931034,47.8 L246.931034,45.1154297 L243.344828,41.5332685 Z M280.048995,37.3281722 C282.723397,37.3281722 284.783409,39.4062551 284.783409,42.0264465 C284.783409,44.646638 282.723397,46.7247208 280.048995,46.7247208 C277.374592,46.7247208 275.31458,44.646638 275.31458,42.0264465 C275.31458,39.4062551 277.374592,37.3281722 280.048995,37.3281722 Z M297.595242,37.3281722 C299.924875,37.3281722 301.886983,38.8507748 301.948685,41.6720759 L301.950181,41.8096031 C301.950181,42.0083763 301.950181,42.1710088 301.932111,42.4601334 L294.830488,42.4601334 C294.92084,43.9418968 296.113479,44.9176923 297.613312,44.9176923 C298.878232,44.9176923 299.727536,44.3394431 300.197363,43.5443505 L301.715267,44.6285677 C300.902104,45.911558 299.492622,46.7247208 297.595242,46.7247208 C294.848559,46.7247208 292.878897,44.77313 292.878897,42.0264465 C292.878897,39.3701145 294.848559,37.3281722 297.595242,37.3281722 Z M318.845898,37.3281722 C320.707138,37.3281722 322.279252,38.322038 323.056275,39.8218717 L321.321527,40.7615265 C320.88784,39.839942 320.002396,39.1713414 318.845898,39.1713414 C317.237643,39.1713414 316.099215,40.4181911 316.099215,42.0264465 C316.099215,43.634702 317.237643,44.8815517 318.845898,44.8815517 C320.002396,44.8815517 320.88784,44.2129511 321.321527,43.2913665 L323.056275,44.2310214 C322.279252,45.7308551 320.707138,46.7247208 318.845898,46.7247208 C316.135355,46.7247208 314.075343,44.7008488 314.075343,42.0264465 C314.075343,39.3520442 316.135355,37.3281722 318.845898,37.3281722 Z M328.965258,37.3281722 C331.332466,37.3281722 333.320197,38.9002871 333.320197,41.8096031 L333.318389,42.0793708 C333.316302,42.186659 333.311807,42.3052452 333.302127,42.4601334 L326.200504,42.4601334 C326.290856,43.9418968 327.483495,44.9176923 328.983328,44.9176923 C330.248248,44.9176923 331.097552,44.3394431 331.567379,43.5443505 L333.085283,44.6285677 C332.27212,45.911558 330.862638,46.7247208 328.965258,46.7247208 C326.218575,46.7247208 324.248914,44.77313 324.248914,42.0264465 C324.248914,39.3701145 326.218575,37.3281722 328.965258,37.3281722 Z M269.477877,33.7141151 L269.477877,35.7379871 L263.96644,35.7379871 L263.96644,39.0448494 L268.303309,39.0448494 L268.303309,41.0506511 L263.96644,41.0506511 L263.96644,46.544018 L261.852217,46.544018 L261.852217,33.7141151 L269.477877,33.7141151 Z M273.290708,33.3527094 L273.290708,46.544018 L271.302976,46.544018 L271.302976,33.3527094 L273.290708,33.3527094 Z M291.053799,37.4185237 C291.433275,37.4185237 291.75854,37.4727345 291.975383,37.5269454 L291.686259,39.460466 C291.505556,39.3881848 291.216431,39.3520442 290.909236,39.3520442 C290.114144,39.3520442 289.174489,39.8038014 288.776943,40.7434562 L288.776943,46.544018 L286.789211,46.544018 L286.789211,37.5088751 L288.776943,37.5088751 L288.776943,38.7195842 C289.120278,38.0329134 290.041863,37.4185237 291.053799,37.4185237 Z M308.636187,37.3281722 C310.804621,37.3281722 312.177963,38.8099357 312.177963,41.1410025 L312.177963,46.544018 L310.190231,46.544018 L310.190231,41.4662677 C310.190231,40.0387151 309.46742,39.1352008 308.2025,39.1352008 C307.136353,39.1352008 306.359331,39.7315202 305.979855,40.5627534 L305.979855,46.544018 L303.992123,46.544018 L303.992123,37.5088751 L305.979855,37.5088751 L305.979855,38.4666002 C306.594244,37.7076482 307.57004,37.3281722 308.636187,37.3281722 Z M280.048995,39.1713414 C278.440739,39.1713414 277.320381,40.4181911 277.320381,42.0264465 C277.320381,43.634702 278.440739,44.8815517 280.048995,44.8815517 C281.63918,44.8815517 282.759537,43.634702 282.759537,42.0264465 C282.759537,40.4181911 281.63918,39.1713414 280.048995,39.1713414 Z M243.344828,36.7815444 L243.344828,39.461361 L246.931034,43.0435222 L246.931034,40.3637056 L243.344828,36.7815444 Z M297.522961,39.0087088 C296.366463,39.0087088 295.191894,39.6773094 294.92084,41.0145105 L299.944379,41.0145105 C299.727536,39.71345 298.679459,39.0087088 297.522961,39.0087088 Z M328.892977,39.0087088 C327.736479,39.0087088 326.56191,39.6773094 326.290856,41.0145105 L331.314395,41.0145105 C331.097552,39.71345 330.049475,39.0087088 328.892977,39.0087088 Z" id="Logo"></path>
            </g>
        </g>
    </g>
</svg>