<svg xmlns="http://www.w3.org/2000/svg" xmlns:xlink="http://www.w3.org/1999/xlink" width="43" height="45" viewBox="0 0 43 45">
  <defs>
    <path id="blob3-b" d="M20.5882353,36.5441176 C29.8268221,36.5441176 35,28.7974103 35,19.5588235 C35,10.3202367 30.341528,0 16.9852941,0 C3.62906025,1.70782868e-15 0,13.1511191 0,22.3897059 C0,31.6282927 11.3496485,36.5441176 20.5882353,36.5441176 Z"/>
    <filter id="blob3-a" width="140%" height="138.3%" x="-20%" y="-13.7%" filterUnits="objectBoundingBox">
      <feOffset dy="2" in="SourceAlpha" result="shadowOffsetOuter1"/>
      <feGaussianBlur in="shadowOffsetOuter1" result="shadowBlurOuter1" stdDeviation="2"/>
      <feColorMatrix in="shadowBlurOuter1" values="0 0 0 0 0.207843137   0 0 0 0 0.247058824   0 0 0 0 0.321568627  0 0 0 0.1 0"/>
    </filter>
  </defs>
  <g fill="none" fill-rule="evenodd" transform="translate(4 2)">
    <use fill="#000" filter="url(#blob3-a)" xlink:href="#blob3-b"/>
    <use fill="#C1E9DF" xlink:href="#blob3-b"/>
    <path fill="#353F52" d="M20.928,19.6 C20.928,21.1 19.764,22.12 18.072,22.12 C16.404,22.12 15.012,21.04 14.976,19.324 L16.296,19.324 C16.368,20.26 17.112,20.824 18.072,20.824 C18.924,20.824 19.584,20.344 19.596,19.516 C19.596,18.616 18.936,18.16 17.952,18.16 L17.28,18.16 L17.28,17.032 L17.952,17.032 C18.792,17.032 19.344,16.528 19.356,15.82 C19.368,15.112 18.768,14.632 18.024,14.632 C17.148,14.632 16.464,15.172 16.464,16.084 L15.132,16.084 C15.132,14.368 16.488,13.336 18.024,13.336 C19.608,13.336 20.7,14.344 20.688,15.736 C20.688,16.564 20.208,17.248 19.644,17.584 C20.388,17.908 20.928,18.628 20.928,19.6 Z"/>
  </g>
</svg>
