<svg xmlns="http://www.w3.org/2000/svg" width="136" height="12" viewBox="0 0 136 12">
  <g fill="#353F52">
    <path d="M82.6964205 10.6981844C82.6964205 11.3947395 82.1313982 11.9595784 81.4350265 11.9595784L71.9984196 11.9595784C71.301681 11.9595784 70.7368421 11.3945561 70.7368421 10.6981844L70.7368421 1.26157748C70.7368421.564655442 71.3018644 1.13686838e-13 71.9982361 1.13686838e-13L81.4348431 1.13686838e-13C82.1315816 1.13686838e-13 82.6964205.565022353 82.6964205 1.26139403L82.6964205 10.6980009 82.6964205 10.6981844zM95.9417917 10.6981844C95.9417917 11.3947395 95.3767693 11.9595784 94.6802142 11.9595784L85.2436073 11.9595784C84.5470522 11.9595784 83.9822133 11.3945561 83.9822133 10.6981844L83.9822133 1.26157748C83.9822133.564838898 84.5472356 1.13686838e-13 85.2436073 1.13686838e-13L94.6802142 1.13686838e-13C95.3769528 1.13686838e-13 95.9417917.565022353 95.9417917 1.26139403L95.9417917 10.6980009 95.9417917 10.6981844zM109.187163 10.6981844C109.187163 11.3947395 108.622141 11.9595784 107.925585 11.9595784L98.4889785 11.9595784C97.7924233 11.9595784 97.227401 11.3945561 97.227401 10.6981844L97.227401 1.26157748C97.227401.564838898 97.7924233 1.13686838e-13 98.4889785 1.13686838e-13L107.925585 1.13686838e-13C108.622141 1.13686838e-13 109.187163.565022353 109.187163 1.26139403L109.187163 10.6980009 109.187163 10.6981844zM122.432167 10.6981844C122.432167 11.3947395 121.867512 11.9595784 121.170957 11.9595784L111.73435 11.9595784C111.037611 11.9595784 110.472772 11.3945561 110.472772 10.6981844L110.472772 1.26157748C110.472772.564838898 111.037794 1.13686838e-13 111.73435 1.13686838e-13L121.170957 1.13686838e-13C121.867512 1.13686838e-13 122.432351.565022353 122.432351 1.26139403L122.432351 10.6980009 122.432167 10.6981844zM135.677722 10.6981844C135.677722 11.3947395 135.112699 11.9595784 134.416328 11.9595784L124.979721 11.9595784C124.281331 11.9595784 123.714658 11.3945561 123.714658 10.6981844L123.714658 1.26157748C123.714658.564838898 124.281515 1.13686838e-13 124.979537 1.13686838e-13L134.41431 1.13686838e-13C135.107746 1.13686838e-13 135.674236.565022353 135.674236 1.26139403L135.674236 10.6980009 135.677905 10.6980009 135.677722 10.6981844zM76.7148885 1.9302484L75.709956 5.02502988 72.4607106 5.02502988 75.0913666 6.93656649 74.0860671 10.0295135 76.7198417 8.11797684 79.3486631 10.0295135 78.3433637 6.93656649 80.9740196 5.02502988 77.7196377 5.02502988 76.7147051 1.9302484 76.7148885 1.9302484zM89.9617273 1.9302484L88.9569782 5.02502988 85.7044307 5.02502988 88.3350867 6.93656649 87.3297872 10.0295135 89.9637453 8.11797684 92.5940343 10.0295135 91.5891017 6.93656649 94.2160887 5.02502988 90.9635413 5.02502988 89.9582418 1.9302484 89.9619108 1.9302484 89.9617273 1.9302484zM103.207282 1.9302484L102.203817 5.02502988 98.9463164 5.02502988 101.580274 6.93473201 100.575342 10.027679 103.209116 8.11614235 105.837571 10.027679 104.832638 6.93473201 107.466413 5.02502988 104.212031 5.02502988 103.207282 1.9302484zM116.450819 1.9302484L115.447354 5.02502988 112.193522 5.02502988 114.827297 6.93656649 113.821997 10.0295135 116.452653 8.11797684 119.081474 10.0295135 118.076175 6.93656649 120.70995 5.02502988 117.457402 5.02502988 116.45247 1.9302484 116.450635 1.9302484 116.450819 1.9302484zM129.69619 1.9302484L128.691257 5.02502988 125.436875 5.02502988 128.067531 6.93656649 127.062232 10.0295135 129.69619 8.11797684 132.325011 10.0295135 131.319712 6.93656649 133.957155 5.02502988 130.70314 5.02502988 129.697841 1.9302484 129.696373 1.9302484 129.69619 1.9302484zM14.9945556 2.95099979C14.9945556 3.02437931 14.9945556 3.08308293 14.9835487 3.1340817 14.9762107 3.18911635 14.9615348 3.23314407 14.9468589 3.26249587 14.928514 3.29184769 14.9101691 3.31349464 14.8844863 3.3355085 14.8588035 3.34651543 14.8331206 3.35385338 14.8041357 3.35385338L12.7533614 3.35385338 12.7533614 9.67403186C12.7533614 9.71072164 12.7533614 9.73273549 12.7350166 9.75474933 12.7203406 9.77676321 12.6986937 9.79143911 12.6620039 9.80978398 12.6179762 9.82042403 12.5702795 9.83509993 12.5082738 9.84610685 12.4459012 9.84610685 12.3688527 9.85711377 12.2738262 9.85711377 12.1857708 9.85711377 12.1090892 9.84977582 12.0432311 9.84243787 11.9771895 9.83509993 11.9258238 9.82042403 11.8891341 9.80574813 11.8524443 9.79474117 11.8267615 9.7763963 11.8084166 9.75438246 11.7937407 9.73236858 11.7864027 9.70705267 11.7864027 9.68136981L11.7864027 3.35403683 9.74388369 3.35403683C9.70719391 3.35403683 9.68518006 3.34669888 9.65949721 3.33202297 9.63381439 3.31000912 9.61180054 3.28799526 9.59712461 3.25864345 9.58281562 3.22195369 9.5718087 3.18526392 9.56080175 3.13022928 9.5534638 3.07556153 9.54979482 3.01337239 9.54979482 2.94733082 9.54979482 2.87395129 9.54979482 2.80827661 9.56080175 2.75342542 9.5718087 2.69839078 9.58281562 2.65436306 9.59749152 2.62134227 9.61216742 2.58465251 9.6341813 2.56300555 9.65619515 2.54832965 9.67784211 2.53365374 9.70352494 2.52631579 9.73654574 2.52631579L14.7896433 2.52631579C14.8259661 2.52631579 14.84798 2.53365374 14.8736628 2.54832965 14.8993456 2.56300555 14.9176905 2.58501941 14.9360354 2.62170917 14.9507113 2.65839893 14.9653872 2.6947218 14.9727252 2.75342542 14.9800631 2.80846006 14.9837321 2.87046576 14.9837321 2.94366184L14.994739 2.95099979 14.9945556 2.95099979zM21.2009958 9.67384841C21.2009958 9.71053819 21.1936579 9.73255203 21.1789819 9.75456591 21.167975 9.77657976 21.1422922 9.7985936 21.1056024 9.80960053 21.0689127 9.82757852 21.017547 9.83858545 20.9518723 9.84592339 20.8784928 9.85326138 20.7941063 9.85693035 20.6809184 9.85693035 20.5818561 9.85693035 20.5048076 9.85693035 20.4428019 9.84592339 20.3804293 9.83858545 20.3327326 9.82390955 20.2964097 9.80923365 20.2597199 9.79088878 20.2230302 9.77254387 20.2046853 9.73585413 20.1826714 9.70686921 20.1679955 9.67017943 20.1533196 9.62633516L19.4833646 7.90521841C19.4099851 7.71131303 19.3255986 7.5319001 19.241579 7.37083204 19.1571926 7.20976397 19.0584971 7.07052634 18.9412733 6.94981699 18.824233 6.83240978 18.6849953 6.74105227 18.5312652 6.67519415 18.3738662 6.60915254 18.1871153 6.57613177 17.9636746 6.57613177L17.3194024 6.57613177 17.3194024 9.68136981C17.3194024 9.71805959 17.3083955 9.74007344 17.2900506 9.76208732 17.2720726 9.78410116 17.2463897 9.79877706 17.2097 9.81712193 17.1730102 9.82776198 17.1253136 9.84243787 17.0633078 9.8534448 17.0046042 9.8534448 16.9238867 9.86445172 16.8325292 9.86445172 16.7375027 9.86445172 16.6604542 9.85711377 16.5982651 9.84977582 16.5358925 9.84243787 16.4881958 9.82776198 16.4515061 9.81308608 16.4148163 9.80207916 16.3854645 9.78373425 16.3711555 9.76172041 16.3601485 9.73970656 16.3528106 9.71439062 16.3528106 9.68870776L16.3528106 2.9255004C16.3528106 2.77874136 16.3895003 2.67637692 16.4628799 2.61785675 16.5432305 2.55915313 16.6274335 2.52980132 16.7116365 2.52980132L18.2568258 2.52980132C18.4402746 2.52980132 18.5938213 2.53713927 18.714714 2.54447722 18.8357903 2.55181517 18.9453092 2.5628221 19.0441881 2.58116698 19.3261489 2.6251947 19.5716035 2.7018763 19.7875227 2.80075521 20.0072944 2.9108245 20.1830384 3.0423573 20.3294305 3.20360881 20.4761896 3.36834584 20.5858919 3.55142775 20.659088 3.7601925 20.7324675 3.9687738 20.7691573 4.19955241 20.7691573 4.4558304 20.7691573 4.69358006 20.7398055 4.91335174 20.6737639 5.10744058 20.6077223 5.30152942 20.512329 5.47360441 20.3918031 5.61999656 20.2670579 5.76675561 20.1208492 5.89461945 19.9451052 6.00450526 19.7726634 6.11457456 19.5789414 6.2022631 19.3665077 6.27912814 19.487217 6.33049381 19.5969194 6.39616847 19.6957983 6.47670252 19.7911917 6.55008204 19.8788802 6.65244648 19.9667522 6.76233232 20.0548076 6.87240162 20.1318561 7.00760337 20.2085377 7.15417899 20.2819173 7.30057112 20.3549299 7.46530816 20.4281259 7.64839007L21.0872575 9.25228303C21.1386232 9.38766827 21.171644 9.48287822 21.1863199 9.53791284 21.2009958 9.59294748 21.2083338 9.63330624 21.2083338 9.66596013L21.2009958 9.67329808 21.2009958 9.67384841zM19.736157 4.55856173C19.736157 4.27293193 19.6701155 4.03132985 19.5420682 3.837241 19.413654 3.63948318 19.1979182 3.49657656 18.9012815 3.41237355 18.8058881 3.37568379 18.6998547 3.36100789 18.5826309 3.35000096 18.4655906 3.33899403 18.311677 3.33532505 18.1175882 3.33532505L17.3122479 3.33532505 17.3122479 5.78876946 18.2533403 5.78876946C18.5094348 5.78876946 18.7292065 5.75207971 18.9122884 5.69337609 19.0953703 5.63137039 19.2527694 5.54716738 19.3736622 5.43728155 19.497857 5.32721226 19.593067 5.19201048 19.6481016 5.04194935 19.7068052 4.89519031 19.736157 4.72696774 19.736157 4.55122378L19.736157 4.55856173zM27.6671995 7.0960257C27.6671995 7.53538562 27.6048269 7.91971088 27.4767797 8.26771328 27.3487324 8.60470876 27.1656505 8.89033856 26.9275339 9.13175718 26.6932698 9.36987374 26.40764 9.54928667 26.067159 9.67017943 25.7375015 9.79492463 25.3458383 9.85326138 24.9173018 9.85326138 24.5219697 9.85326138 24.1633272 9.79822673 23.8371552 9.68485537 23.5150191 9.57478607 23.2367273 9.40289454 23.0061321 9.17945388 22.7716845 8.95986565 22.5959406 8.67423585 22.4713788 8.33742383 22.3429647 8.0077663 22.280959 7.61610309 22.280959 7.17655975L22.280959 2.71655221C22.280959 2.67986245 22.2882969 2.65784859 22.3029728 2.63216575 22.3213177 2.6101519 22.3470005 2.59547599 22.3836903 2.58080009 22.4203801 2.56649108 22.4677099 2.55548415 22.529899 2.54447722 22.5886026 2.53713927 22.6656511 2.53347029 22.7606776 2.53347029 22.8487331 2.53347029 22.9254146 2.53347029 22.9876038 2.5481462 23.0499764 2.55548415 23.0973062 2.56649108 23.1339959 2.58483596 23.1706857 2.59584289 23.1926996 2.61051879 23.2073755 2.63253265 23.2220514 2.65821549 23.2293893 2.67986245 23.2293893 2.71288323L23.2293893 7.04466003C23.2293893 7.37431756 23.2657122 7.66728531 23.3499152 7.91237293 23.4343016 8.16186332 23.551342 8.36659217 23.7015866 8.53499818 23.8553167 8.69643315 24.0420676 8.82062798 24.2581703 8.90116203 24.4704206 8.98554847 24.7158751 9.0295762 24.98316 9.0295762 25.2614518 9.0295762 25.5067229 8.99288642 25.7228256 8.904831 25.9424138 8.83145148 26.1254957 8.70725662 26.2720713 8.54600513 26.4184635 8.3812681 26.5283493 8.17984129 26.6125523 7.93823921 26.6932698 7.70048953 26.7299596 7.41852874 26.7299596 7.09620916L26.7299596 2.71673566C26.7299596 2.68004589 26.7299596 2.65803204 26.7516065 2.6323492 26.7662824 2.61033535 26.7882963 2.59565944 26.8249861 2.58098354 26.8616758 2.56667453 26.9130415 2.5556676 26.9713782 2.54466067 27.0337508 2.53732272 27.1104324 2.53365374 27.2019733 2.53365374 27.2900288 2.53365374 27.3634083 2.53365374 27.421745 2.54832965 27.4841176 2.5556676 27.5318143 2.56667453 27.5685041 2.58501941 27.6051938 2.59602634 27.6272077 2.61070224 27.6418836 2.6327161 27.6635306 2.65839893 27.6708685 2.68004589 27.6708685 2.71306668L27.6708685 7.08868775 27.6671995 7.0960257zM33.1156292 7.7551573C33.1156292 8.09196932 33.0536237 8.38860605 32.9327308 8.64855299 32.8120215 8.904831 32.6399464 9.12460269 32.4203583 9.30768459 32.2079246 9.4907665 31.9516466 9.62633516 31.6513409 9.71787613 31.3583731 9.80593155 31.0472439 9.85326138 30.7065795 9.85326138 30.4686464 9.85326138 30.2488747 9.8312475 30.0474479 9.78721977 29.8425356 9.75053003 29.6631226 9.69953126 29.4982021 9.64082764 29.3444721 9.58212402 29.2054178 9.5237873 29.1028699 9.45774573 28.9928007 9.39904211 28.919788 9.34804334 28.8830983 9.30034664 28.8354016 9.25264994 28.8023808 9.1976153 28.7840359 9.12827166 28.765691 9.06223009 28.755051 8.97087257 28.755051 8.85731776 28.755051 8.77329819 28.755051 8.71110905 28.7660579 8.65240542 28.7733959 8.60103975 28.7844028 8.55701206 28.8027477 8.52435817 28.8137546 8.48766839 28.8320995 8.46565454 28.8537465 8.45097864 28.8757603 8.43997172 28.9014432 8.43263374 28.927126 8.43263374 28.9821606 8.43263374 29.0515043 8.46932352 29.1467142 8.52435817 29.2384386 8.58673076 29.359148 8.6560744 29.5055401 8.7292705 29.6522992 8.80265002 29.8278597 8.87602954 30.0329554 8.93436625 30.2415367 9.00040782 30.4796533 9.02975965 30.7506072 9.02975965 30.952034 9.02975965 31.1422704 9.0040768 31.3108599 8.94904215 31.4827514 8.89400753 31.6254746 8.816959 31.7500363 8.71477802 31.8711125 8.61571568 31.9696246 8.49500634 32.0319971 8.34861421 32.0980387 8.20185516 32.1310595 8.0299636 32.1310595 7.84321272 32.1310595 7.64178594 32.0833628 7.46971096 31.9953074 7.33065674 31.9002809 7.1838977 31.7830571 7.05970284 31.629327 6.94981699 31.4829348 6.83974773 31.3108599 6.74472124 31.116771 6.65684924 30.9265346 6.56512485 30.7324458 6.47376734 30.531019 6.37855739 30.3295922 6.286833 30.1283488 6.18446856 29.9452669 6.07091374 29.754847 5.96139481 29.5791031 5.82215714 29.4325275 5.66842705 29.2857684 5.51433005 29.1613901 5.33876953 29.0661802 5.12651926 28.9744558 4.92142349 28.930795 4.67248345 28.930795 4.38318467 28.930795 4.08287896 28.9821606 3.81926302 29.091863 3.58481544 29.2019323 3.35055131 29.348141 3.15646246 29.5422299 2.99906338 29.7326497 2.8416643 29.9595759 2.72077153 30.2268608 2.6402375 30.5014837 2.57052695 30.7834445 2.53383719 31.0872357 2.53383719 31.2486707 2.53383719 31.4060698 2.5485131 31.5634689 2.57052695 31.7245369 2.60721672 31.8745981 2.64390648 32.0138357 2.68022934 32.1605948 2.73159501 32.2813041 2.78296068 32.3911899 2.83799532 32.5012592 2.89633204 32.5742718 2.94017631 32.6107782 2.97686607 32.6401301 3.01355584 32.6621437 3.04290764 32.6731507 3.06125253 32.6878265 3.08326639 32.6951647 3.10894922 32.7025026 3.13426515 32.7135096 3.17095492 32.7208475 3.20764468 32.7208475 3.25167239 32.7208475 3.29570011 32.7281853 3.35403683 32.7281853 3.41989495 32.7281853 3.49327448 32.7281853 3.5519781 32.7208475 3.60297687 32.7135096 3.65434254 32.7061717 3.69837025 32.6951647 3.73139104 32.6841577 3.7677139 32.6694816 3.79339674 32.647468 3.80440367 32.6291231 3.82274855 32.6034403 3.83375548 32.5814264 3.83375548 32.5373986 3.83375548 32.4717239 3.80807264 32.3911899 3.76037595 32.3031345 3.70534131 32.20077 3.65067356 32.0762083 3.57747748 31.948161 3.51877386 31.8015855 3.46007024 31.6295104 3.4050356 31.4611044 3.35366993 31.2706846 3.33165608 31.0582509 3.33165608 30.8608599 3.33165608 30.6922705 3.35366993 30.5458783 3.4050356 30.3994862 3.46007024 30.2749244 3.52978079 30.1797145 3.61746933 30.084688 3.70552476 30.0151609 3.81155817 29.9674642 3.93245094 29.9197675 4.05316025 29.8940847 4.18139098 29.8940847 4.3167762 29.8940847 4.51453402 29.9417814 4.68294003 30.0335058 4.82951563 30.1252302 4.96856983 30.2457561 5.09680055 30.3996696 5.20668639 30.5458783 5.31675567 30.7216223 5.41581804 30.9120422 5.50717554 31.1098 5.59889995 31.3075578 5.69025746 31.5088011 5.78528394 31.7102279 5.88067734 31.9043168 5.98304175 32.0947366 6.09292759 32.2924945 6.20299689 32.4609005 6.33838213 32.6182994 6.48862669 32.7650587 6.6423568 32.8892534 6.81810076 32.9844632 7.02686552 33.0798567 7.23599716 33.1238843 7.48108476 33.1238843 7.75937661L33.1165465 7.75570763 33.1156292 7.7551573zM39.1208262 2.95833774C39.1208262 3.02437931 39.1208262 3.08675191 39.1098192 3.14141966 39.0988122 3.19278532 39.0878052 3.23314407 39.0731295 3.26616485 39.0547846 3.29551666 39.0364397 3.31716362 39.0111236 3.33183953 38.9854409 3.34651543 38.9597581 3.35385338 38.9304063 3.35385338L36.8878872 3.35385338 36.8878872 9.66302494C36.8878872 9.69237674 36.8805493 9.72172856 36.8658732 9.74374241 36.8511975 9.76208732 36.8291835 9.78043219 36.7851558 9.79143911 36.7484661 9.80611501 36.7011363 9.81712193 36.6389472 9.82776198 36.5765747 9.83509993 36.4998931 9.8387689 36.4046829 9.8387689 36.3166277 9.8387689 36.239946 9.8387689 36.1777569 9.824093 36.1117153 9.81675505 36.0603498 9.80574813 36.02366 9.78740323 35.9873369 9.78006528 35.9616542 9.76172041 35.9506472 9.73970656 35.9323023 9.71439062 35.9249644 9.68503879 35.9249644 9.65568699L35.9249644 3.35403683 33.8811611 3.35403683C33.8518092 3.35403683 33.8224577 3.34669888 33.8004437 3.33202297 33.7751276 3.31734707 33.7567828 3.29533321 33.742107 3.25864345 33.7274312 3.22929164 33.7127551 3.18526392 33.7054172 3.13389826 33.6944103 3.08289948 33.6907411 3.02437931 33.6907411 2.95099979 33.6907411 2.87762027 33.6907411 2.81561457 33.7054172 2.76057992 33.7127551 2.70554528 33.7274312 2.66188446 33.742107 2.62886368 33.7567828 2.59217391 33.7787967 2.57016006 33.8008107 2.55548415 33.8228244 2.54080825 33.8521762 2.53347029 33.8815281 2.53347029L38.934442 2.53347029C38.9601251 2.53347029 38.9858078 2.54080825 39.0078218 2.55548415 39.0331376 2.57016006 39.0551516 2.59217391 39.0734965 2.62886368 39.0881722 2.66518654 39.0991792 2.7018763 39.1101862 2.76039647 39.1175241 2.81543112 39.1211932 2.87780371 39.1211932 2.95081634L39.1211932 2.95815429 39.1208262 2.95833774zM44.7343597 4.67211655C44.7343597 5.03828038 44.6719872 5.36775444 44.5509109 5.66090565 44.430385 5.95368995 44.2581266 6.20262998 44.0385385 6.40754231 43.8187666 6.6126381 43.5404751 6.77388958 43.2185222 6.883592 42.8886812 6.99366126 42.5080249 7.05603386 42.0572913 7.05603386L41.2262681 7.05603386 41.2262681 9.68081948C41.2262681 9.71750922 41.2189302 9.7395231 41.2005853 9.76153695 41.1859095 9.7835508 41.1638956 9.79822673 41.1275728 9.8165716 41.0908831 9.82721164 41.0395172 9.84188754 40.9808138 9.85289446 40.9151389 9.85289446 40.8346048 9.86390139 40.7430641 9.86390139 40.6550085 9.86390139 40.5746581 9.85656344 40.5159544 9.84922549 40.4499128 9.84188754 40.4058852 9.82721164 40.3695621 9.81253571 40.3255345 9.80152879 40.2961826 9.78318392 40.2851756 9.76117004 40.2704998 9.73915619 40.263162 9.71384025 40.263162 9.68815743L40.263162 2.94733082C40.263162 2.80093866 40.2998517 2.69105282 40.3805691 2.6251947 40.4539486 2.5628221 40.5453063 2.52980132 40.6441852 2.52980132L42.2003815 2.52980132C42.3541114 2.52980132 42.5043561 2.53713927 42.6470794 2.55181517 42.7934714 2.5628221 42.962061 2.58850494 43.1596352 2.63620163 43.3535406 2.67252449 43.5549675 2.75324197 43.7600632 2.87395129 43.965159 2.99135853 44.1372341 3.13756723 44.2799569 3.3133112 44.4267163 3.4820841 44.5362352 3.67965847 44.6096147 3.91043708 44.6829942 4.13736326 44.7193169 4.38648675 44.7193169 4.66110962L44.733993 4.67211655 44.7343597 4.67211655zM43.7162189 4.75283403C43.7162189 4.45968282 43.6575152 4.20340483 43.547813 4.00931599 43.4377437 3.80788919 43.3025417 3.66149704 43.1378048 3.56261813 42.9763698 3.46355577 42.8081471 3.40118318 42.6324033 3.37916932 42.4603282 3.34981751 42.2882534 3.34247956 42.1198474 3.34247956L41.2301205 3.34247956 41.2301205 6.26115018 42.1088405 6.26115018C42.4019918 6.26115018 42.6472627 6.2244604 42.8413514 6.15108088 43.0317714 6.07036341 43.1965086 5.96799897 43.324739 5.83628271 43.4564553 5.70419957 43.5553342 5.54331496 43.6248616 5.36023304 43.6909028 5.17678423 43.7275926 4.97187191 43.7275926 4.75595265L43.7165859 4.75228368 43.7162189 4.75283403zM47.0190312 9.67384841C47.0190312 9.69953126 47.0116933 9.72888306 46.9970175 9.74722793 46.9823414 9.77291078 46.9529899 9.79125566 46.9166668 9.80226258 46.8799771 9.81693851 46.8322803 9.82757852 46.7699078 9.83858545 46.7075353 9.84592339 46.6308537 9.84959237 46.5393127 9.84959237 46.4475883 9.84959237 46.3705397 9.84959237 46.3085342 9.83491647 46.2461614 9.82757852 46.1984646 9.8165716 46.1621419 9.79822673 46.1254521 9.79088878 46.0887624 9.77254387 46.0777554 9.75053003 46.0630796 9.73218515 46.0557417 9.70320024 46.0557417 9.67751738L46.0557417 2.71673566C46.0557417 2.68004589 46.0704175 2.65803204 46.0850933 2.63601818 46.1034381 2.61400432 46.1291212 2.59932842 46.1694797 2.58098354 46.2135077 2.5703435 46.2612044 2.5556676 46.32321 2.54466067 46.3855825 2.54466067 46.4585953 2.53365374 46.5429818 2.53365374 46.6383749 2.53365374 46.7150565 2.54099169 46.7772457 2.54832965 46.8396185 2.5556676 46.8873149 2.5703435 46.923638 2.58501941 46.9603278 2.59602634 46.9896796 2.61437122 47.0043554 2.63638508 47.0190312 2.65839893 47.0263694 2.68371487 47.0263694 2.7093977L47.0263694 9.66651046 47.0190312 9.67384841zM52.5738612 9.43591531C52.5738612 9.50929483 52.5738612 9.57130055 52.5665234 9.61899722 52.5591855 9.67403186 52.5481785 9.71805959 52.5298336 9.75071348 52.5151578 9.78740323 52.4931439 9.824093 52.4674611 9.83509993 52.4491162 9.8534448 52.4201314 9.86078275 52.3834416 9.86078275L49.1719864 9.86078275C49.0839312 9.86078275 49.0035805 9.83143095 48.9267155 9.77272733 48.853336 9.71439062 48.8166463 9.61184272 48.8166463 9.46526714L48.8166463 2.71673566C48.8166463 2.68004589 48.8166463 2.65803204 48.8349912 2.63601818 48.8496669 2.61400432 48.8716809 2.59932842 48.9083706 2.58098354 48.9523983 2.5703435 49.000095 2.5556676 49.0657696 2.54466067 49.1318112 2.54466067 49.212162 2.53365374 49.3002172 2.53365374 49.3919416 2.53365374 49.4686232 2.54099169 49.5308124 2.54832965 49.5931852 2.5556676 49.6408816 2.5703435 49.6772047 2.58501941 49.7138944 2.59602634 49.7432463 2.61437122 49.7579221 2.63638508 49.7689291 2.65839893 49.779936 2.68371487 49.779936 2.7093977L49.779936 9.01820236 52.3794055 9.01820236C52.4160953 9.01820236 52.452785 9.02920929 52.4711299 9.04755419 52.5004817 9.06223009 52.5224957 9.08424393 52.5371715 9.12093371 52.5555164 9.15028551 52.5665234 9.19431323 52.5738612 9.24567891 52.5811994 9.30034664 52.5848682 9.36253579 52.5848682 9.43958428L52.5738612 9.43591531zM59.1649939 6.10356763C59.1649939 6.67867967 59.0916141 7.19508808 58.9598979 7.65627838 58.8245128 8.11398317 58.6230859 8.50564638 58.3521322 8.82796596 58.084847 9.15780691 57.7478517 9.40307796 57.3449982 9.57515295 56.9423279 9.75089694 56.4662782 9.83143095 55.9280393 9.83143095 55.3934695 9.83143095 54.9392504 9.75805143 54.5475872 9.59716682 54.1559239 9.43976774 53.8336044 9.20898913 53.580812 8.90134548 53.3247174 8.60122321 53.1416353 8.22405247 53.0134049 7.77368563 52.8923286 7.32331879 52.8303228 6.80691038 52.8303228 6.22115834 52.8303228 5.66457462 52.9037023 5.1589897 53.0317497 4.69779938 53.1671348 4.2400946 53.3722305 3.85576933 53.6395154 3.52611182 53.9141385 3.21113021 54.2511338 2.96567569 54.6576564 2.79360071 55.0603267 2.6180402 55.5361927 2.52998477 56.0744316 2.52998477 56.594142 2.52998477 57.0481777 2.61070224 57.4363555 2.7642489 57.8208642 2.92568385 58.1430004 3.15242659 58.399462 3.45273229 58.6557399 3.75670697 58.8496453 4.13020876 58.974207 4.57323764 59.1026211 5.01259755 59.1646269 5.52533698 59.1646269 6.10008212L59.1646269 6.10375109 59.1649939 6.10356763zM58.1651977 6.16960921C58.1651977 5.76693906 58.128508 5.39362073 58.0554955 5.04910386 57.9821156 4.70495389 57.8724134 4.40483163 57.7040074 4.14837019 57.5431226 3.89943015 57.3196821 3.70167233 57.0450593 3.56261813 56.7667674 3.41585908 56.4226175 3.34247956 56.0195803 3.34247956 55.6060868 3.34247956 55.2656057 3.41585908 54.9873138 3.57362506 54.7128744 3.72717171 54.485765 3.93226749 54.3136899 4.18854548 54.1416148 4.44482347 54.0207223 4.74879815 53.9475261 5.08927915 53.8668087 5.42976014 53.830119 5.78491703 53.830119 6.16575678 53.830119 6.58328627 53.8668087 6.97146396 53.9328503 7.31928291 54.0062298 7.66710185 54.1159321 7.97107656 54.284338 8.22368556 54.4490752 8.47996356 54.6688467 8.67772137 54.9434698 8.81677558 55.2182759 8.96353462 55.5660949 9.0295762 55.9799554 9.0295762 56.3826257 9.0295762 56.7306279 8.95619668 57.0124053 8.79879759 57.2943663 8.64103159 57.5178069 8.43263374 57.6898819 8.17617231 57.8623237 7.91255639 57.9830329 7.60876514 58.0562291 7.26076274 58.1296086 6.92395072 58.1662983 6.5577869 58.1662983 6.17327818L58.1662983 6.16960921 58.1651977 6.16960921zM64.8111813 2.94733082C64.8111813 3.02071034 64.8111813 3.08308293 64.8001744 3.13775068 64.7928365 3.18911635 64.7781604 3.23314407 64.7634846 3.26249587 64.7451397 3.29184769 64.7267949 3.31349464 64.7014788 3.3355085 64.675796 3.34651543 64.6501133 3.35385338 64.6207614 3.35385338L62.577692 3.35385338 62.577692 9.67403186C62.577692 9.71072164 62.566685 9.73273549 62.5520093 9.75474933 62.5373332 9.77676321 62.5153195 9.79143911 62.4786298 9.80978398 62.4346018 9.82042403 62.3872721 9.83509993 62.3250829 9.84610685 62.2663795 9.84610685 62.1896979 9.85711377 62.0944878 9.85711377 62.0064325 9.85711377 61.9297509 9.84977582 61.8638926 9.84243787 61.8015201 9.83509993 61.7538234 9.82042403 61.7171336 9.80574813 61.6808109 9.79474117 61.651459 9.7763963 61.6367829 9.75438246 61.618438 9.73236858 61.6111001 9.70705267 61.6111001 9.68136981L61.6111001 3.35403683 59.5676638 3.35403683C59.5383119 3.35403683 59.5089604 3.34669888 59.4869464 3.33202297 59.4616303 3.31000912 59.4432855 3.28799526 59.4249406 3.25864345 59.4139339 3.22195369 59.3992578 3.18526392 59.3882508 3.13022928 59.380913 3.07556153 59.3772442 3.01337239 59.3772442 2.94733082 59.3772442 2.87395129 59.3772442 2.80827661 59.3882508 2.75342542 59.3992578 2.69839078 59.4139339 2.65436306 59.4249406 2.62134227 59.4432855 2.58465251 59.4616303 2.56300555 59.4873134 2.54832965 59.5093271 2.53365374 59.5386789 2.52631579 59.5680308 2.52631579L64.6207614 2.52631579C64.6574511 2.52631579 64.6794651 2.53365374 64.7051479 2.54832965 64.7308306 2.56300555 64.7491755 2.58501941 64.7675204 2.62170917 64.7821965 2.65839893 64.7968722 2.6947218 64.8038435 2.75342542 64.8111813 2.80846006 64.8148501 2.87046576 64.8148501 2.94366184L64.8111813 2.94733082zM0 2.52631579L7.22384733 2.52631579C4.18483431 4.38336812 3.64366033 8.92556073 3.64366033 8.92556073 2.4169381 6.86854919 0 5.71832513 0 5.71832513L0 2.52631579zM0 8.3482473C2.01023209 8.44437448 3.24741088 9.76153695 3.24741088 9.76153695L0 9.76153695 0 8.3482473zM4.1189762 9.76153695C4.1189762 9.76153695 5.4664077 6.11090558 7.22384733 5.63485592L7.22384733 9.76153695 4.1189762 9.76153695z"/>
  </g>
</svg>
