<svg xmlns="http://www.w3.org/2000/svg" width="16" height="16" viewBox="0 0 16 16">
  <path fill="#000E1F" fill-rule="evenodd" d="M8,3.23815049e-16 C5.82733333,3.23815049e-16 5.55533333,0.00933333333 4.702,0.048 C1.79666667,0.181333333 0.182,1.79333333 0.0486666667,4.70133333 C0.00933333333,5.55533333 0,5.82733333 0,8 C0,10.1726667 0.00933333333,10.4453333 0.048,11.2986667 C0.181333333,14.204 1.79333333,15.8186667 4.70133333,15.952 C5.55533333,15.9906667 5.82733333,16 8,16 C10.1726667,16 10.4453333,15.9906667 11.2986667,15.952 C14.2013333,15.8186667 15.82,14.2066667 15.9513333,11.2986667 C15.9906667,10.4453333 16,10.1726667 16,8 C16,5.82733333 15.9906667,5.55533333 15.952,4.702 C15.8213333,1.79933333 14.2073333,0.182 11.2993333,0.0486666667 C10.4453333,0.00933333333 10.1726667,0 8,0 L8,3.23815049e-16 Z M8,1.5 C10.1168937,1.5 10.367961,1.50792844 11.2044115,1.54624924 C13.3530189,1.64403334 14.3566274,2.66349868 14.4544115,4.79624924 C14.4927323,5.63203903 14.5,5.88310632 14.5,8 C14.5,10.1175544 14.4920716,10.367961 14.4544115,11.2037508 C14.3559667,13.3345192 13.355001,14.3559667 11.2044115,14.4537508 C10.367961,14.4920716 10.1182151,14.5 8,14.5 C5.88310632,14.5 5.63203903,14.4920716 4.79624924,14.4537508 C2.64235617,14.355306 1.64403334,13.3312157 1.54624924,11.2030901 C1.50792844,10.3673003 1.5,10.1168937 1.5,7.9993393 C1.5,5.88244562 1.50858914,5.63203903 1.54624924,4.79558853 C1.64469404,2.66349868 2.64565969,1.64337264 4.79624924,1.54558853 C5.63269974,1.50792844 5.88310632,1.5 8,1.5 L8,1.5 Z M8,4 C5.79097696,4 4,5.79083164 4,7.99967546 C4,10.2085193 5.79097696,12 8,12 C10.209023,12 12,10.2091684 12,7.99967546 C12,5.79083164 10.209023,4 8,4 Z M8,10.5 C6.619375,10.5 5.5,9.38125 5.5,8 C5.5,6.619375 6.619375,5.5 8,5.5 C9.380625,5.5 10.5,6.619375 10.5,8 C10.5,9.38125 9.380625,10.5 8,10.5 Z M12.0006944,3 C11.4479167,3 11,3.44791667 11,4 C11,4.55208333 11.4479167,5 12.0006944,5 C12.5527778,5 13,4.55208333 13,4 C13,3.44791667 12.5527778,3 12.0006944,3 Z"/>
</svg>
