<svg xmlns="http://www.w3.org/2000/svg" width="22" height="11" viewBox="0 0 22 11">
  <path fill="#051827" d="M221.934708,40.7472943 C221.907106,40.7962641 221.871434,40.8407975 221.82874,40.8783667 L216.853553,45.8535534 C216.658291,46.0488155 216.341709,46.0488155 216.146447,45.8535534 C215.951184,45.6582912 215.951184,45.3417088 216.146447,45.1464466 L220.292893,41 L200.5,41 C200.223858,41 200,40.7761424 200,40.5 C200,40.2238576 200.223858,40 200.5,40 L220.292893,40 L216.146447,35.8535534 C215.951184,35.6582912 215.951184,35.3417088 216.146447,35.1464466 C216.341709,34.9511845 216.658291,34.9511845 216.853553,35.1464466 L221.853553,40.1464466 C221.996095,40.288988 222.028446,40.4773182 221.979863,40.6408037 C221.969114,40.6775565 221.954063,40.713318 221.934708,40.7472943 Z" transform="translate(-200 -35)"/>
</svg>
