<?xml version="1.0" encoding="UTF-8"?>
<svg width="116px" height="32px" viewBox="0 0 116 32" version="1.1" xmlns="http://www.w3.org/2000/svg" xmlns:xlink="http://www.w3.org/1999/xlink">
    <!-- Generator: Sketch 55.1 (78136) - https://sketchapp.com -->
    <title>Logo</title>
    <desc>Created with Sketch.</desc>
    <g id="working" stroke="none" stroke-width="1" fill="none" fill-rule="evenodd">
        <g id="Homepage" transform="translate(-70.000000, -59.000000)" fill="#3D5066" fill-rule="nonzero">
            <g id="Nav" transform="translate(70.000000, 50.000000)">
                <g id="Logo" transform="translate(0.000000, 9.000000)">
                    <path d="M34.627409,7 L34.627409,10.2525817 L27.0390792,10.2525817 L27.0390792,13.837544 L31.0406852,13.837544 L31.0406852,17.0901257 L27.0390792,17.0901257 L27.0390792,23.5952891 L23.385439,23.5952891 L23.385439,7 L34.627409,7 Z M39.4453961,23.5952891 L35.9122056,23.5952891 L35.9122056,7 L39.4453961,7 L39.4453961,23.5952891 Z M52.5295101,21.712464 C51.259384,22.967687 49.6639103,23.5952891 47.7430407,23.5952891 C45.8221711,23.5952891 44.2266973,22.967687 42.9565713,21.712464 C41.6864453,20.4572411 41.0513919,18.9117711 41.0513919,17.0760075 C41.0513919,15.2402439 41.6864453,13.6908513 42.9565713,12.4277832 C44.2266973,11.1647152 45.8221711,10.5331906 47.7430407,10.5331906 C49.6639103,10.5331906 51.259384,11.1647152 52.5295101,12.4277832 C53.7996361,13.6908513 54.4346895,15.2402439 54.4346895,17.0760075 C54.4346895,18.9117711 53.7996361,20.4572411 52.5295101,21.712464 Z M59.1085488,16.3147752 L59.1085488,23.4882227 L55.5053533,23.4882227 L55.5053533,10.8516495 L59.1085488,10.8516495 L59.1085488,12.6745182 L62.9759787,10.5331906 L63,14.1734475 L59.1085488,16.3147752 Z M75.4609406,21.6783185 C74.041577,23.0276833 72.3765792,23.7023555 70.4658973,23.7023555 C68.5552155,23.7023555 66.9760022,23.110056 65.72821,21.9254394 C64.4804178,20.7408227 63.856531,19.152205 63.856531,17.1595385 C63.856531,15.1668722 64.4921156,13.5821769 65.763304,12.4054054 C67.0344923,11.2286339 68.5357198,10.640257 70.2670315,10.640257 C71.9983431,10.640257 73.4683763,11.1658737 74.6771751,12.2171229 C75.8859738,13.2683722 76.490364,14.7118569 76.490364,16.5476204 L76.490364,18.4304454 L67.3191372,18.4304454 C67.428319,19.1208181 67.7870539,19.68566 68.3953526,20.1249879 C69.0036512,20.564316 69.6899267,20.7839767 70.4541994,20.7839767 C71.6863942,20.7839767 72.7002102,20.3681904 73.4956777,19.5366051 L75.4609406,21.6783185 Z M81.426273,16.4418064 L81.426273,23.4882227 L77.882227,23.4882227 L77.882227,10.8516495 L81.426273,10.8516495 L81.426273,12.2609328 C82.4973683,11.1804768 83.7023319,10.640257 85.0412002,10.640257 C86.3800685,10.640257 87.5023394,11.1100134 88.4080439,12.0495403 C89.3137495,12.9890671 89.7665953,14.2417507 89.7665953,15.8076289 L89.7665953,23.4882227 L86.2225493,23.4882227 L86.2225493,16.3478542 C86.2225493,14.4061653 85.5058715,13.4353354 84.0724946,13.4353354 C83.363682,13.4353354 82.7454486,13.6897868 82.2177773,14.1986972 C81.6901049,14.7076076 81.426273,15.4553032 81.426273,16.4418064 Z M97.8068009,20.5721589 C98.9755621,20.5721589 100.027431,19.9837819 100.962441,18.8070104 L103.042827,21.1605416 C101.422143,22.8550927 99.6690278,23.7023555 97.7834251,23.7023555 C95.8978233,23.7023555 94.3044358,23.102211 93.0032141,21.9019041 C91.7019925,20.7015971 91.0513919,19.132592 91.0513919,17.1948415 C91.0513919,15.2570911 91.7097848,13.6802409 93.0265889,12.4642437 C94.343394,11.2482465 95.9056156,10.640257 97.7132998,10.640257 C98.6171424,10.640257 99.5326585,10.8285376 100.459876,11.2051045 C101.387094,11.5816713 102.201319,12.1386682 102.902576,12.8761117 L101.079317,15.2767136 C100.674146,14.7903147 100.179378,14.4137534 99.5949968,14.1470185 C99.0106156,13.8802836 98.4301403,13.7469182 97.8535503,13.7469182 C96.9341253,13.7469182 96.1432752,14.0489517 95.4809764,14.6530277 C94.8186777,15.2571039 94.4875343,16.0965215 94.4875343,17.1713062 C94.4875343,18.2460909 94.8186777,19.0815861 95.4809764,19.677817 C96.1432752,20.2740479 96.9185418,20.5721589 97.8068009,20.5721589 Z M114.968436,21.6783185 C113.549072,23.0276833 111.884074,23.7023555 109.973392,23.7023555 C108.06271,23.7023555 106.483497,23.110056 105.235704,21.9254394 C103.987912,20.7408227 103.364026,19.152205 103.364026,17.1595385 C103.364026,15.1668722 103.99961,13.5821769 105.270799,12.4054054 C106.541987,11.2286339 108.043214,10.640257 109.774526,10.640257 C111.505838,10.640257 112.97587,11.1658737 114.184669,12.2171229 C115.393468,13.2683722 115.997859,14.7118569 115.997859,16.5476204 L115.997859,18.4304454 L106.826632,18.4304454 C106.935814,19.1208181 107.294548,19.68566 107.902847,20.1249879 C108.511146,20.564316 109.197421,20.7839767 109.961694,20.7839767 C111.193889,20.7839767 112.207704,20.3681904 113.003172,19.5366051 L114.968436,21.6783185 Z M45.3647234,19.6166451 C45.956198,20.2705052 46.713274,20.5974304 47.6359743,20.5974304 C48.5586746,20.5974304 49.3157506,20.2705052 49.9072252,19.6166451 C50.4986997,18.9627849 50.7944325,18.1159305 50.7944325,17.0760565 C50.7944325,16.0361825 50.4986997,15.1853893 49.9072252,14.5236513 C49.3157506,13.8619133 48.5586746,13.5310493 47.6359743,13.5310493 C46.713274,13.5310493 45.956198,13.8619133 45.3647234,14.5236513 C44.7732489,15.1853893 44.4775161,16.0361825 44.4775161,17.0760565 C44.4775161,18.1159305 44.7732489,18.9627849 45.3647234,19.6166451 Z M72.1355494,14.1627409 C71.6490632,13.7544591 71.0566574,13.5503212 70.3583142,13.5503212 C69.6599711,13.5503212 69.0204867,13.7623105 68.4398419,14.1862955 C67.859197,14.6102805 67.5218003,15.1834368 67.4276416,15.9057816 L72.9829728,15.9057816 C72.9045073,15.1520305 72.6220357,14.5710227 72.1355494,14.1627409 Z M111.643044,14.1627409 C111.156558,13.7544591 110.564152,13.5503212 109.865808,13.5503212 C109.167466,13.5503212 108.527982,13.7623105 107.947336,14.1862955 C107.366692,14.6102805 107.029294,15.1834368 106.935136,15.9057816 L112.490468,15.9057816 C112.412002,15.1520305 112.12953,14.5710227 111.643044,14.1627409 Z" id="florence_logo"></path>
                    <path d="M7.3875803,27.3019272 L7.3875803,30.2997859 C7.3875803,30.7137037 7.05203351,31.0492505 6.63811563,31.0492505 C6.22419775,31.0492505 5.88865096,30.7137037 5.88865096,30.2997859 L5.88865096,27.3019272 L0.6271803,22.0404565 C0.225603533,21.6388798 4.03233003e-13,21.0942247 4.03233003e-13,20.5263093 L4.03233003e-13,6.63811563 C4.03233003e-13,2.97198565 2.97198565,7.10542736e-15 6.63811563,7.10542736e-15 C10.3042456,7.10542736e-15 13.2762313,2.97198565 13.2762313,6.63811563 L13.2762313,20.5263093 C13.2762313,21.0942247 13.0506277,21.6388798 12.649051,22.0404565 L7.3875803,27.3019272 Z M1.60599572,11.6811393 L1.60599572,14.8813815 L5.88865096,19.1592054 L5.88865096,15.9589632 L1.60599572,11.6811393 Z M1.60599572,9.20686328 L5.88865096,13.4846872 L5.88865096,6.74518201 C5.88865096,6.33126413 6.22419775,5.99571734 6.63811563,5.99571734 C7.05203351,5.99571734 7.3875803,6.33126413 7.3875803,6.74518201 L7.3875803,24.8394004 L11.2939273,20.9330534 C11.5348734,20.6921073 11.6702355,20.3653142 11.6702355,20.024565 L11.6702355,6.63811563 C11.6702355,3.85895257 9.41727869,1.60599572 6.63811563,1.60599572 C3.85895257,1.60599572 1.60599572,3.85895257 1.60599572,6.63811563 L1.60599572,9.20686328 Z M1.60599572,17.3556575 L1.60599572,20.024565 C1.60599572,20.3653142 1.74135782,20.6921073 1.98230396,20.9330534 L5.88865096,24.8394004 L5.88865096,21.6334814 L1.60599572,17.3556575 Z" id="Combined-Shape"></path>
                </g>
            </g>
        </g>
    </g>
</svg>